<mxfile host="app.diagrams.net" modified="2023-07-06T16:34:43.495Z" agent="Mozilla/5.0 (Macintosh; Intel Mac OS X 10_15_7) AppleWebKit/537.36 (KHTML, like Gecko) Chrome/114.0.0.0 Safari/537.36" etag="Ic9J6IWTY8Soj81pnhwx" version="21.3.4" type="device">
  <diagram name="Page-1" id="trqMA6kiyU-wLQIfASnf">
    <mxGraphModel dx="2074" dy="1130" grid="1" gridSize="10" guides="1" tooltips="1" connect="1" arrows="1" fold="1" page="1" pageScale="1" pageWidth="850" pageHeight="1100" math="0" shadow="0">
      <root>
        <mxCell id="0" />
        <mxCell id="1" parent="0" />
        <mxCell id="stLxp_5td-xepopUjHBC-103" value="" style="verticalLabelPosition=bottom;verticalAlign=top;html=1;shape=mxgraph.basic.rect;fillColor2=none;strokeWidth=1;size=20;indent=5;" vertex="1" parent="1">
          <mxGeometry x="2820" y="213" width="270" height="675" as="geometry" />
        </mxCell>
        <mxCell id="stLxp_5td-xepopUjHBC-64" value="" style="group" vertex="1" connectable="0" parent="1">
          <mxGeometry x="1968" y="175" width="270" height="750" as="geometry" />
        </mxCell>
        <mxCell id="stLxp_5td-xepopUjHBC-62" value="" style="verticalLabelPosition=bottom;verticalAlign=top;html=1;shape=mxgraph.basic.rect;fillColor2=none;strokeWidth=1;size=20;indent=5;" vertex="1" parent="stLxp_5td-xepopUjHBC-64">
          <mxGeometry width="270" height="750" as="geometry" />
        </mxCell>
        <mxCell id="stLxp_5td-xepopUjHBC-63" value="Request Loan Flow" style="text;html=1;align=center;verticalAlign=middle;resizable=0;points=[];autosize=1;strokeColor=none;fillColor=none;" vertex="1" parent="stLxp_5td-xepopUjHBC-64">
          <mxGeometry x="75" y="10" width="130" height="30" as="geometry" />
        </mxCell>
        <mxCell id="stLxp_5td-xepopUjHBC-74" value="Show Limit" style="ellipse;whiteSpace=wrap;html=1;" vertex="1" parent="stLxp_5td-xepopUjHBC-64">
          <mxGeometry x="92.5" y="80" width="85" height="50" as="geometry" />
        </mxCell>
        <mxCell id="stLxp_5td-xepopUjHBC-86" value="Request Loan" style="ellipse;whiteSpace=wrap;html=1;" vertex="1" parent="stLxp_5td-xepopUjHBC-64">
          <mxGeometry x="92.5" y="160" width="85" height="50" as="geometry" />
        </mxCell>
        <mxCell id="stLxp_5td-xepopUjHBC-87" value="Fill Loan amount" style="ellipse;whiteSpace=wrap;html=1;" vertex="1" parent="stLxp_5td-xepopUjHBC-64">
          <mxGeometry x="92.5" y="240" width="85" height="50" as="geometry" />
        </mxCell>
        <mxCell id="stLxp_5td-xepopUjHBC-88" value="Fill Loan Tenor" style="ellipse;whiteSpace=wrap;html=1;" vertex="1" parent="stLxp_5td-xepopUjHBC-64">
          <mxGeometry x="92.5" y="310" width="85" height="50" as="geometry" />
        </mxCell>
        <mxCell id="stLxp_5td-xepopUjHBC-89" value="Submit Loan" style="ellipse;whiteSpace=wrap;html=1;" vertex="1" parent="stLxp_5td-xepopUjHBC-64">
          <mxGeometry x="92.5" y="390" width="85" height="50" as="geometry" />
        </mxCell>
        <mxCell id="stLxp_5td-xepopUjHBC-92" value="Sign Document" style="ellipse;whiteSpace=wrap;html=1;" vertex="1" parent="stLxp_5td-xepopUjHBC-64">
          <mxGeometry x="92.5" y="460" width="85" height="50" as="geometry" />
        </mxCell>
        <mxCell id="stLxp_5td-xepopUjHBC-36" value="Process Loan" style="ellipse;whiteSpace=wrap;html=1;" vertex="1" parent="stLxp_5td-xepopUjHBC-64">
          <mxGeometry x="92.5" y="530" width="85" height="50" as="geometry" />
        </mxCell>
        <mxCell id="stLxp_5td-xepopUjHBC-101" value="Disbursement" style="ellipse;whiteSpace=wrap;html=1;" vertex="1" parent="stLxp_5td-xepopUjHBC-64">
          <mxGeometry x="92.5" y="600" width="85" height="50" as="geometry" />
        </mxCell>
        <mxCell id="stLxp_5td-xepopUjHBC-66" value="" style="group" vertex="1" connectable="0" parent="1">
          <mxGeometry x="275" y="135" width="270" height="830" as="geometry" />
        </mxCell>
        <mxCell id="stLxp_5td-xepopUjHBC-4" value="" style="verticalLabelPosition=bottom;verticalAlign=top;html=1;shape=mxgraph.basic.rect;fillColor2=none;strokeWidth=1;size=20;indent=5;" vertex="1" parent="stLxp_5td-xepopUjHBC-66">
          <mxGeometry width="270" height="830" as="geometry" />
        </mxCell>
        <mxCell id="stLxp_5td-xepopUjHBC-8" value="Registration Flow" style="text;html=1;align=center;verticalAlign=middle;resizable=0;points=[];autosize=1;strokeColor=none;fillColor=none;" vertex="1" parent="stLxp_5td-xepopUjHBC-66">
          <mxGeometry x="75" y="11.857142857142858" width="120" height="30" as="geometry" />
        </mxCell>
        <mxCell id="stLxp_5td-xepopUjHBC-73" value="Calculate Limit" style="ellipse;whiteSpace=wrap;html=1;" vertex="1" parent="stLxp_5td-xepopUjHBC-66">
          <mxGeometry x="92.5" y="755" width="85" height="50" as="geometry" />
        </mxCell>
        <mxCell id="stLxp_5td-xepopUjHBC-18" value="Capture&lt;br&gt;Selfie" style="ellipse;whiteSpace=wrap;html=1;" vertex="1" parent="stLxp_5td-xepopUjHBC-66">
          <mxGeometry x="92.5" y="125" width="85" height="50" as="geometry" />
        </mxCell>
        <mxCell id="stLxp_5td-xepopUjHBC-19" value="Capture&lt;br&gt;KTP" style="ellipse;whiteSpace=wrap;html=1;" vertex="1" parent="stLxp_5td-xepopUjHBC-66">
          <mxGeometry x="92.5" y="185" width="85" height="50" as="geometry" />
        </mxCell>
        <mxCell id="stLxp_5td-xepopUjHBC-20" value="Capture&lt;br&gt;Selfie &amp;amp; KTP" style="ellipse;whiteSpace=wrap;html=1;" vertex="1" parent="stLxp_5td-xepopUjHBC-66">
          <mxGeometry x="92.5" y="245" width="85" height="50" as="geometry" />
        </mxCell>
        <mxCell id="stLxp_5td-xepopUjHBC-52" value="redirect&lt;br&gt;login page" style="ellipse;whiteSpace=wrap;html=1;" vertex="1" parent="stLxp_5td-xepopUjHBC-66">
          <mxGeometry x="92.5" y="675" width="85" height="50" as="geometry" />
        </mxCell>
        <mxCell id="stLxp_5td-xepopUjHBC-33" value="Success&lt;br&gt;Message" style="ellipse;whiteSpace=wrap;html=1;" vertex="1" parent="stLxp_5td-xepopUjHBC-66">
          <mxGeometry x="92.5" y="595" width="85" height="50" as="geometry" />
        </mxCell>
        <mxCell id="stLxp_5td-xepopUjHBC-25" value="Error&lt;br&gt;Message" style="ellipse;whiteSpace=wrap;html=1;" vertex="1" parent="stLxp_5td-xepopUjHBC-66">
          <mxGeometry x="92.5" y="515" width="85" height="50" as="geometry" />
        </mxCell>
        <mxCell id="stLxp_5td-xepopUjHBC-17" value="check&lt;br&gt;data" style="ellipse;whiteSpace=wrap;html=1;" vertex="1" parent="stLxp_5td-xepopUjHBC-66">
          <mxGeometry x="92.5" y="445" width="85" height="50" as="geometry" />
        </mxCell>
        <mxCell id="stLxp_5td-xepopUjHBC-9" value="submit&lt;br&gt;Data" style="ellipse;whiteSpace=wrap;html=1;" vertex="1" parent="stLxp_5td-xepopUjHBC-66">
          <mxGeometry x="92.5" y="375" width="85" height="50" as="geometry" />
        </mxCell>
        <mxCell id="stLxp_5td-xepopUjHBC-131" value="Enter&lt;br&gt;fingerprint" style="ellipse;whiteSpace=wrap;html=1;" vertex="1" parent="stLxp_5td-xepopUjHBC-66">
          <mxGeometry x="92.5" y="305" width="85" height="50" as="geometry" />
        </mxCell>
        <mxCell id="stLxp_5td-xepopUjHBC-65" value="" style="group" vertex="1" connectable="0" parent="1">
          <mxGeometry x="1135" y="245" width="270" height="610" as="geometry" />
        </mxCell>
        <mxCell id="stLxp_5td-xepopUjHBC-37" value="" style="verticalLabelPosition=bottom;verticalAlign=top;html=1;shape=mxgraph.basic.rect;fillColor2=none;strokeWidth=1;size=20;indent=5;" vertex="1" parent="stLxp_5td-xepopUjHBC-65">
          <mxGeometry width="270" height="610" as="geometry" />
        </mxCell>
        <mxCell id="stLxp_5td-xepopUjHBC-38" value="Login Flow" style="text;html=1;align=center;verticalAlign=middle;resizable=0;points=[];autosize=1;strokeColor=none;fillColor=none;" vertex="1" parent="stLxp_5td-xepopUjHBC-65">
          <mxGeometry x="100" y="10" width="80" height="30" as="geometry" />
        </mxCell>
        <mxCell id="stLxp_5td-xepopUjHBC-1" value="Borrower" style="shape=umlActor;verticalLabelPosition=bottom;verticalAlign=top;html=1;outlineConnect=0;" vertex="1" parent="1">
          <mxGeometry x="170" y="520" width="30" height="60" as="geometry" />
        </mxCell>
        <mxCell id="stLxp_5td-xepopUjHBC-5" value="Fill&lt;br&gt;Personal&lt;br&gt;Data" style="ellipse;whiteSpace=wrap;html=1;" vertex="1" parent="1">
          <mxGeometry x="367.5" y="195" width="85" height="50" as="geometry" />
        </mxCell>
        <mxCell id="stLxp_5td-xepopUjHBC-6" value="Auth Service" style="shape=umlActor;verticalLabelPosition=bottom;verticalAlign=top;html=1;outlineConnect=0;" vertex="1" parent="1">
          <mxGeometry x="615" y="443" width="30" height="60" as="geometry" />
        </mxCell>
        <mxCell id="stLxp_5td-xepopUjHBC-14" value="" style="endArrow=none;html=1;rounded=0;exitX=0.5;exitY=0.5;exitDx=0;exitDy=0;exitPerimeter=0;entryX=0;entryY=0.5;entryDx=0;entryDy=0;" edge="1" parent="1" source="stLxp_5td-xepopUjHBC-1" target="stLxp_5td-xepopUjHBC-5">
          <mxGeometry width="50" height="50" relative="1" as="geometry">
            <mxPoint x="205" y="95" as="sourcePoint" />
            <mxPoint x="255" y="45" as="targetPoint" />
          </mxGeometry>
        </mxCell>
        <mxCell id="stLxp_5td-xepopUjHBC-15" value="" style="endArrow=none;html=1;rounded=0;exitX=0.5;exitY=0.5;exitDx=0;exitDy=0;exitPerimeter=0;entryX=0;entryY=0.5;entryDx=0;entryDy=0;" edge="1" parent="1" source="stLxp_5td-xepopUjHBC-1" target="stLxp_5td-xepopUjHBC-9">
          <mxGeometry width="50" height="50" relative="1" as="geometry">
            <mxPoint x="205" y="95" as="sourcePoint" />
            <mxPoint x="255" y="45" as="targetPoint" />
          </mxGeometry>
        </mxCell>
        <mxCell id="stLxp_5td-xepopUjHBC-16" value="" style="endArrow=none;html=1;rounded=0;exitX=0.5;exitY=0.5;exitDx=0;exitDy=0;exitPerimeter=0;entryX=1;entryY=0.5;entryDx=0;entryDy=0;" edge="1" parent="1" source="stLxp_5td-xepopUjHBC-6" target="stLxp_5td-xepopUjHBC-9">
          <mxGeometry width="50" height="50" relative="1" as="geometry">
            <mxPoint x="85" y="65" as="sourcePoint" />
            <mxPoint x="135" y="15" as="targetPoint" />
          </mxGeometry>
        </mxCell>
        <mxCell id="stLxp_5td-xepopUjHBC-21" value="" style="endArrow=none;html=1;rounded=0;exitX=0.5;exitY=0.5;exitDx=0;exitDy=0;exitPerimeter=0;entryX=1;entryY=0.5;entryDx=0;entryDy=0;" edge="1" parent="1" source="stLxp_5td-xepopUjHBC-6" target="stLxp_5td-xepopUjHBC-17">
          <mxGeometry width="50" height="50" relative="1" as="geometry">
            <mxPoint x="85" y="65" as="sourcePoint" />
            <mxPoint x="135" y="15" as="targetPoint" />
          </mxGeometry>
        </mxCell>
        <mxCell id="stLxp_5td-xepopUjHBC-22" value="" style="endArrow=none;html=1;rounded=0;exitX=0.5;exitY=0.5;exitDx=0;exitDy=0;exitPerimeter=0;entryX=0;entryY=0.5;entryDx=0;entryDy=0;" edge="1" parent="1" source="stLxp_5td-xepopUjHBC-1" target="stLxp_5td-xepopUjHBC-20">
          <mxGeometry width="50" height="50" relative="1" as="geometry">
            <mxPoint x="95" y="75" as="sourcePoint" />
            <mxPoint x="145" y="25" as="targetPoint" />
          </mxGeometry>
        </mxCell>
        <mxCell id="stLxp_5td-xepopUjHBC-23" value="" style="endArrow=none;html=1;rounded=0;exitX=0.5;exitY=0.5;exitDx=0;exitDy=0;exitPerimeter=0;entryX=0;entryY=0.5;entryDx=0;entryDy=0;" edge="1" parent="1" source="stLxp_5td-xepopUjHBC-1" target="stLxp_5td-xepopUjHBC-19">
          <mxGeometry width="50" height="50" relative="1" as="geometry">
            <mxPoint x="105" y="85" as="sourcePoint" />
            <mxPoint x="155" y="35" as="targetPoint" />
          </mxGeometry>
        </mxCell>
        <mxCell id="stLxp_5td-xepopUjHBC-24" value="" style="endArrow=none;html=1;rounded=0;exitX=0.5;exitY=0.5;exitDx=0;exitDy=0;exitPerimeter=0;entryX=0;entryY=0.5;entryDx=0;entryDy=0;" edge="1" parent="1" source="stLxp_5td-xepopUjHBC-1" target="stLxp_5td-xepopUjHBC-18">
          <mxGeometry width="50" height="50" relative="1" as="geometry">
            <mxPoint x="115" y="95" as="sourcePoint" />
            <mxPoint x="165" y="45" as="targetPoint" />
          </mxGeometry>
        </mxCell>
        <mxCell id="stLxp_5td-xepopUjHBC-26" value="" style="endArrow=none;html=1;rounded=0;exitX=0.5;exitY=0.5;exitDx=0;exitDy=0;exitPerimeter=0;entryX=0;entryY=0.5;entryDx=0;entryDy=0;" edge="1" parent="1" source="stLxp_5td-xepopUjHBC-1" target="stLxp_5td-xepopUjHBC-25">
          <mxGeometry width="50" height="50" relative="1" as="geometry">
            <mxPoint x="85" y="65" as="sourcePoint" />
            <mxPoint x="135" y="15" as="targetPoint" />
          </mxGeometry>
        </mxCell>
        <mxCell id="stLxp_5td-xepopUjHBC-27" value="" style="endArrow=none;html=1;rounded=0;exitX=1;exitY=0.5;exitDx=0;exitDy=0;entryX=0.5;entryY=0.5;entryDx=0;entryDy=0;entryPerimeter=0;" edge="1" parent="1" source="stLxp_5td-xepopUjHBC-52" target="stLxp_5td-xepopUjHBC-6">
          <mxGeometry width="50" height="50" relative="1" as="geometry">
            <mxPoint x="1075" y="65" as="sourcePoint" />
            <mxPoint x="875" y="575" as="targetPoint" />
          </mxGeometry>
        </mxCell>
        <mxCell id="stLxp_5td-xepopUjHBC-28" value="" style="endArrow=none;html=1;rounded=0;exitX=1;exitY=0.5;exitDx=0;exitDy=0;entryX=0.5;entryY=0.5;entryDx=0;entryDy=0;entryPerimeter=0;" edge="1" parent="1" source="stLxp_5td-xepopUjHBC-48" target="stLxp_5td-xepopUjHBC-39">
          <mxGeometry width="50" height="50" relative="1" as="geometry">
            <mxPoint x="1050" y="205" as="sourcePoint" />
            <mxPoint x="1100" y="155" as="targetPoint" />
          </mxGeometry>
        </mxCell>
        <mxCell id="stLxp_5td-xepopUjHBC-29" value="" style="endArrow=none;html=1;rounded=0;exitX=0.5;exitY=0.5;exitDx=0;exitDy=0;exitPerimeter=0;entryX=0;entryY=0.5;entryDx=0;entryDy=0;" edge="1" parent="1" source="stLxp_5td-xepopUjHBC-35" target="stLxp_5td-xepopUjHBC-44">
          <mxGeometry width="50" height="50" relative="1" as="geometry">
            <mxPoint x="910" y="200" as="sourcePoint" />
            <mxPoint x="960" y="150" as="targetPoint" />
          </mxGeometry>
        </mxCell>
        <mxCell id="stLxp_5td-xepopUjHBC-30" value="" style="endArrow=none;html=1;rounded=0;entryX=0.5;entryY=0.5;entryDx=0;entryDy=0;entryPerimeter=0;exitX=1;exitY=0.5;exitDx=0;exitDy=0;" edge="1" parent="1" source="stLxp_5td-xepopUjHBC-33" target="stLxp_5td-xepopUjHBC-6">
          <mxGeometry width="50" height="50" relative="1" as="geometry">
            <mxPoint x="115" y="95" as="sourcePoint" />
            <mxPoint x="165" y="45" as="targetPoint" />
          </mxGeometry>
        </mxCell>
        <mxCell id="stLxp_5td-xepopUjHBC-31" value="" style="endArrow=none;html=1;rounded=0;entryX=0.5;entryY=0.5;entryDx=0;entryDy=0;entryPerimeter=0;exitX=0;exitY=0.5;exitDx=0;exitDy=0;" edge="1" parent="1" source="stLxp_5td-xepopUjHBC-33" target="stLxp_5td-xepopUjHBC-1">
          <mxGeometry width="50" height="50" relative="1" as="geometry">
            <mxPoint x="125" y="105" as="sourcePoint" />
            <mxPoint x="175" y="55" as="targetPoint" />
          </mxGeometry>
        </mxCell>
        <mxCell id="stLxp_5td-xepopUjHBC-32" value="" style="endArrow=none;html=1;rounded=0;entryX=0.5;entryY=0.5;entryDx=0;entryDy=0;entryPerimeter=0;exitX=1;exitY=0.5;exitDx=0;exitDy=0;" edge="1" parent="1" source="stLxp_5td-xepopUjHBC-25" target="stLxp_5td-xepopUjHBC-6">
          <mxGeometry width="50" height="50" relative="1" as="geometry">
            <mxPoint x="135" y="115" as="sourcePoint" />
            <mxPoint x="185" y="65" as="targetPoint" />
          </mxGeometry>
        </mxCell>
        <mxCell id="stLxp_5td-xepopUjHBC-35" value="Borrower" style="shape=umlActor;verticalLabelPosition=bottom;verticalAlign=top;html=1;outlineConnect=0;" vertex="1" parent="1">
          <mxGeometry x="1040" y="520" width="30" height="60" as="geometry" />
        </mxCell>
        <mxCell id="stLxp_5td-xepopUjHBC-39" value="Auth Service" style="shape=umlActor;verticalLabelPosition=bottom;verticalAlign=top;html=1;outlineConnect=0;" vertex="1" parent="1">
          <mxGeometry x="1470" y="520" width="30" height="60" as="geometry" />
        </mxCell>
        <mxCell id="stLxp_5td-xepopUjHBC-43" value="Fill&lt;br&gt;Email" style="ellipse;whiteSpace=wrap;html=1;" vertex="1" parent="1">
          <mxGeometry x="1233" y="305" width="85" height="50" as="geometry" />
        </mxCell>
        <mxCell id="stLxp_5td-xepopUjHBC-44" value="Fill&lt;br&gt;Password or&lt;br&gt;Fingerprint" style="ellipse;whiteSpace=wrap;html=1;" vertex="1" parent="1">
          <mxGeometry x="1235" y="385" width="85" height="50" as="geometry" />
        </mxCell>
        <mxCell id="stLxp_5td-xepopUjHBC-47" value="" style="endArrow=none;html=1;rounded=0;exitX=0.5;exitY=0.5;exitDx=0;exitDy=0;exitPerimeter=0;entryX=0;entryY=0.5;entryDx=0;entryDy=0;" edge="1" parent="1" source="stLxp_5td-xepopUjHBC-35" target="stLxp_5td-xepopUjHBC-43">
          <mxGeometry width="50" height="50" relative="1" as="geometry">
            <mxPoint x="920" y="210" as="sourcePoint" />
            <mxPoint x="970" y="160" as="targetPoint" />
          </mxGeometry>
        </mxCell>
        <mxCell id="stLxp_5td-xepopUjHBC-48" value="Check&lt;br&gt;Auth" style="ellipse;whiteSpace=wrap;html=1;" vertex="1" parent="1">
          <mxGeometry x="1235" y="465" width="85" height="50" as="geometry" />
        </mxCell>
        <mxCell id="stLxp_5td-xepopUjHBC-50" value="Error&lt;br&gt;Message" style="ellipse;whiteSpace=wrap;html=1;" vertex="1" parent="1">
          <mxGeometry x="1235" y="555" width="85" height="50" as="geometry" />
        </mxCell>
        <mxCell id="stLxp_5td-xepopUjHBC-51" value="Success&lt;br&gt;Message" style="ellipse;whiteSpace=wrap;html=1;" vertex="1" parent="1">
          <mxGeometry x="1235" y="625" width="85" height="50" as="geometry" />
        </mxCell>
        <mxCell id="stLxp_5td-xepopUjHBC-53" value="redirect&lt;br&gt;Main page" style="ellipse;whiteSpace=wrap;html=1;" vertex="1" parent="1">
          <mxGeometry x="1235" y="705" width="85" height="50" as="geometry" />
        </mxCell>
        <mxCell id="stLxp_5td-xepopUjHBC-54" value="" style="endArrow=none;html=1;rounded=0;exitX=0.5;exitY=0.5;exitDx=0;exitDy=0;exitPerimeter=0;entryX=0;entryY=0.5;entryDx=0;entryDy=0;" edge="1" parent="1" source="stLxp_5td-xepopUjHBC-35" target="stLxp_5td-xepopUjHBC-50">
          <mxGeometry width="50" height="50" relative="1" as="geometry">
            <mxPoint x="1040" y="195" as="sourcePoint" />
            <mxPoint x="1090" y="145" as="targetPoint" />
          </mxGeometry>
        </mxCell>
        <mxCell id="stLxp_5td-xepopUjHBC-55" value="" style="endArrow=none;html=1;rounded=0;exitX=1;exitY=0.5;exitDx=0;exitDy=0;entryX=0.5;entryY=0.5;entryDx=0;entryDy=0;entryPerimeter=0;" edge="1" parent="1" source="stLxp_5td-xepopUjHBC-50" target="stLxp_5td-xepopUjHBC-39">
          <mxGeometry width="50" height="50" relative="1" as="geometry">
            <mxPoint x="1050" y="205" as="sourcePoint" />
            <mxPoint x="1100" y="155" as="targetPoint" />
          </mxGeometry>
        </mxCell>
        <mxCell id="stLxp_5td-xepopUjHBC-56" value="" style="endArrow=none;html=1;rounded=0;exitX=0;exitY=0.5;exitDx=0;exitDy=0;entryX=0.5;entryY=0.5;entryDx=0;entryDy=0;entryPerimeter=0;" edge="1" parent="1" source="stLxp_5td-xepopUjHBC-51" target="stLxp_5td-xepopUjHBC-35">
          <mxGeometry width="50" height="50" relative="1" as="geometry">
            <mxPoint x="1060" y="215" as="sourcePoint" />
            <mxPoint x="1110" y="165" as="targetPoint" />
          </mxGeometry>
        </mxCell>
        <mxCell id="stLxp_5td-xepopUjHBC-57" value="" style="endArrow=none;html=1;rounded=0;entryX=0.5;entryY=0.5;entryDx=0;entryDy=0;entryPerimeter=0;exitX=1;exitY=0.5;exitDx=0;exitDy=0;" edge="1" parent="1" source="stLxp_5td-xepopUjHBC-73" target="stLxp_5td-xepopUjHBC-71">
          <mxGeometry width="50" height="50" relative="1" as="geometry">
            <mxPoint x="685" y="785" as="sourcePoint" />
            <mxPoint x="735" y="735" as="targetPoint" />
          </mxGeometry>
        </mxCell>
        <mxCell id="stLxp_5td-xepopUjHBC-59" value="" style="endArrow=none;html=1;rounded=0;exitX=1;exitY=0.5;exitDx=0;exitDy=0;entryX=0.5;entryY=0.5;entryDx=0;entryDy=0;entryPerimeter=0;" edge="1" parent="1" source="stLxp_5td-xepopUjHBC-53" target="stLxp_5td-xepopUjHBC-39">
          <mxGeometry width="50" height="50" relative="1" as="geometry">
            <mxPoint x="1060" y="215" as="sourcePoint" />
            <mxPoint x="1110" y="165" as="targetPoint" />
          </mxGeometry>
        </mxCell>
        <mxCell id="stLxp_5td-xepopUjHBC-61" value="" style="endArrow=none;html=1;rounded=0;exitX=1;exitY=0.5;exitDx=0;exitDy=0;entryX=0.5;entryY=0.5;entryDx=0;entryDy=0;entryPerimeter=0;" edge="1" parent="1" source="stLxp_5td-xepopUjHBC-51" target="stLxp_5td-xepopUjHBC-39">
          <mxGeometry width="50" height="50" relative="1" as="geometry">
            <mxPoint x="1080" y="235" as="sourcePoint" />
            <mxPoint x="1130" y="185" as="targetPoint" />
          </mxGeometry>
        </mxCell>
        <mxCell id="stLxp_5td-xepopUjHBC-67" value="Borrower" style="shape=umlActor;verticalLabelPosition=bottom;verticalAlign=top;html=1;outlineConnect=0;" vertex="1" parent="1">
          <mxGeometry x="1880" y="520" width="30" height="60" as="geometry" />
        </mxCell>
        <mxCell id="stLxp_5td-xepopUjHBC-68" value="Loan Management Service" style="shape=umlActor;verticalLabelPosition=bottom;verticalAlign=top;html=1;outlineConnect=0;" vertex="1" parent="1">
          <mxGeometry x="2338" y="370" width="30" height="60" as="geometry" />
        </mxCell>
        <mxCell id="stLxp_5td-xepopUjHBC-69" value="Payment Processing Service" style="shape=umlActor;verticalLabelPosition=bottom;verticalAlign=top;html=1;outlineConnect=0;" vertex="1" parent="1">
          <mxGeometry x="2338" y="670" width="30" height="60" as="geometry" />
        </mxCell>
        <mxCell id="stLxp_5td-xepopUjHBC-70" value="eSign Service" style="shape=umlActor;verticalLabelPosition=bottom;verticalAlign=top;html=1;outlineConnect=0;" vertex="1" parent="1">
          <mxGeometry x="2338" y="520" width="30" height="60" as="geometry" />
        </mxCell>
        <mxCell id="stLxp_5td-xepopUjHBC-71" value="Credit Scoring Service" style="shape=umlActor;verticalLabelPosition=bottom;verticalAlign=top;html=1;outlineConnect=0;" vertex="1" parent="1">
          <mxGeometry x="615" y="598" width="30" height="60" as="geometry" />
        </mxCell>
        <mxCell id="stLxp_5td-xepopUjHBC-82" value="" style="endArrow=none;html=1;rounded=0;exitX=0.5;exitY=0.5;exitDx=0;exitDy=0;exitPerimeter=0;entryX=0;entryY=0.5;entryDx=0;entryDy=0;" edge="1" parent="1" source="stLxp_5td-xepopUjHBC-67" target="stLxp_5td-xepopUjHBC-88">
          <mxGeometry width="50" height="50" relative="1" as="geometry">
            <mxPoint x="1828" y="165" as="sourcePoint" />
            <mxPoint x="1878" y="115" as="targetPoint" />
          </mxGeometry>
        </mxCell>
        <mxCell id="stLxp_5td-xepopUjHBC-83" value="" style="endArrow=none;html=1;rounded=0;exitX=0.5;exitY=0.5;exitDx=0;exitDy=0;exitPerimeter=0;entryX=0;entryY=0.5;entryDx=0;entryDy=0;" edge="1" parent="1" source="stLxp_5td-xepopUjHBC-67" target="stLxp_5td-xepopUjHBC-87">
          <mxGeometry width="50" height="50" relative="1" as="geometry">
            <mxPoint x="1838" y="175" as="sourcePoint" />
            <mxPoint x="1888" y="125" as="targetPoint" />
          </mxGeometry>
        </mxCell>
        <mxCell id="stLxp_5td-xepopUjHBC-84" value="" style="endArrow=none;html=1;rounded=0;exitX=0.5;exitY=0.5;exitDx=0;exitDy=0;exitPerimeter=0;entryX=0;entryY=0.5;entryDx=0;entryDy=0;" edge="1" parent="1" source="stLxp_5td-xepopUjHBC-67" target="stLxp_5td-xepopUjHBC-86">
          <mxGeometry width="50" height="50" relative="1" as="geometry">
            <mxPoint x="1848" y="185" as="sourcePoint" />
            <mxPoint x="1898" y="135" as="targetPoint" />
          </mxGeometry>
        </mxCell>
        <mxCell id="stLxp_5td-xepopUjHBC-85" value="" style="endArrow=none;html=1;rounded=0;entryX=0.5;entryY=0.5;entryDx=0;entryDy=0;entryPerimeter=0;exitX=1;exitY=0.5;exitDx=0;exitDy=0;" edge="1" parent="1" source="stLxp_5td-xepopUjHBC-74" target="stLxp_5td-xepopUjHBC-68">
          <mxGeometry width="50" height="50" relative="1" as="geometry">
            <mxPoint x="1858" y="195" as="sourcePoint" />
            <mxPoint x="1908" y="145" as="targetPoint" />
          </mxGeometry>
        </mxCell>
        <mxCell id="stLxp_5td-xepopUjHBC-90" value="" style="endArrow=none;html=1;rounded=0;exitX=0.5;exitY=0.5;exitDx=0;exitDy=0;exitPerimeter=0;entryX=0;entryY=0.5;entryDx=0;entryDy=0;" edge="1" parent="1" source="stLxp_5td-xepopUjHBC-67" target="stLxp_5td-xepopUjHBC-92">
          <mxGeometry width="50" height="50" relative="1" as="geometry">
            <mxPoint x="1828" y="165" as="sourcePoint" />
            <mxPoint x="1878" y="115" as="targetPoint" />
          </mxGeometry>
        </mxCell>
        <mxCell id="stLxp_5td-xepopUjHBC-91" value="" style="endArrow=none;html=1;rounded=0;exitX=0.5;exitY=0.5;exitDx=0;exitDy=0;exitPerimeter=0;entryX=0;entryY=0.5;entryDx=0;entryDy=0;" edge="1" parent="1" source="stLxp_5td-xepopUjHBC-67" target="stLxp_5td-xepopUjHBC-89">
          <mxGeometry width="50" height="50" relative="1" as="geometry">
            <mxPoint x="1838" y="175" as="sourcePoint" />
            <mxPoint x="1888" y="125" as="targetPoint" />
          </mxGeometry>
        </mxCell>
        <mxCell id="stLxp_5td-xepopUjHBC-94" value="" style="endArrow=none;html=1;rounded=0;entryX=0.5;entryY=0.5;entryDx=0;entryDy=0;entryPerimeter=0;exitX=1;exitY=0.5;exitDx=0;exitDy=0;" edge="1" parent="1" source="stLxp_5td-xepopUjHBC-92" target="stLxp_5td-xepopUjHBC-70">
          <mxGeometry width="50" height="50" relative="1" as="geometry">
            <mxPoint x="1828" y="165" as="sourcePoint" />
            <mxPoint x="1878" y="115" as="targetPoint" />
          </mxGeometry>
        </mxCell>
        <mxCell id="stLxp_5td-xepopUjHBC-99" value="" style="endArrow=none;html=1;rounded=0;entryX=0.5;entryY=0.5;entryDx=0;entryDy=0;entryPerimeter=0;exitX=1;exitY=0.5;exitDx=0;exitDy=0;" edge="1" parent="1" source="stLxp_5td-xepopUjHBC-101" target="stLxp_5td-xepopUjHBC-69">
          <mxGeometry width="50" height="50" relative="1" as="geometry">
            <mxPoint x="1828" y="165" as="sourcePoint" />
            <mxPoint x="1878" y="115" as="targetPoint" />
          </mxGeometry>
        </mxCell>
        <mxCell id="stLxp_5td-xepopUjHBC-100" value="" style="endArrow=none;html=1;rounded=0;entryX=0.5;entryY=0.5;entryDx=0;entryDy=0;entryPerimeter=0;exitX=1;exitY=0.5;exitDx=0;exitDy=0;" edge="1" parent="1" source="stLxp_5td-xepopUjHBC-36" target="stLxp_5td-xepopUjHBC-68">
          <mxGeometry width="50" height="50" relative="1" as="geometry">
            <mxPoint x="1838" y="175" as="sourcePoint" />
            <mxPoint x="1888" y="125" as="targetPoint" />
          </mxGeometry>
        </mxCell>
        <mxCell id="stLxp_5td-xepopUjHBC-102" value="Loan Payment Flow" style="text;html=1;align=center;verticalAlign=middle;resizable=0;points=[];autosize=1;strokeColor=none;fillColor=none;" vertex="1" parent="1">
          <mxGeometry x="2890" y="228" width="130" height="30" as="geometry" />
        </mxCell>
        <mxCell id="stLxp_5td-xepopUjHBC-104" value="show notification" style="ellipse;whiteSpace=wrap;html=1;" vertex="1" parent="1">
          <mxGeometry x="2913" y="273" width="85" height="50" as="geometry" />
        </mxCell>
        <mxCell id="stLxp_5td-xepopUjHBC-111" value="Borrower" style="shape=umlActor;verticalLabelPosition=bottom;verticalAlign=top;html=1;outlineConnect=0;" vertex="1" parent="1">
          <mxGeometry x="2750" y="520" width="30" height="60" as="geometry" />
        </mxCell>
        <mxCell id="stLxp_5td-xepopUjHBC-112" value="Payment Processing Service" style="shape=umlActor;verticalLabelPosition=bottom;verticalAlign=top;html=1;outlineConnect=0;" vertex="1" parent="1">
          <mxGeometry x="3190" y="583" width="30" height="60" as="geometry" />
        </mxCell>
        <mxCell id="stLxp_5td-xepopUjHBC-113" value="" style="endArrow=none;html=1;rounded=0;entryX=0;entryY=0.5;entryDx=0;entryDy=0;exitX=0.5;exitY=0.5;exitDx=0;exitDy=0;exitPerimeter=0;" edge="1" parent="1" source="stLxp_5td-xepopUjHBC-111" target="stLxp_5td-xepopUjHBC-120">
          <mxGeometry width="50" height="50" relative="1" as="geometry">
            <mxPoint x="2690" y="78" as="sourcePoint" />
            <mxPoint x="2740" y="28" as="targetPoint" />
          </mxGeometry>
        </mxCell>
        <mxCell id="stLxp_5td-xepopUjHBC-114" value="" style="endArrow=none;html=1;rounded=0;entryX=0;entryY=0.5;entryDx=0;entryDy=0;exitX=0.5;exitY=0.5;exitDx=0;exitDy=0;exitPerimeter=0;" edge="1" parent="1" source="stLxp_5td-xepopUjHBC-111" target="stLxp_5td-xepopUjHBC-119">
          <mxGeometry width="50" height="50" relative="1" as="geometry">
            <mxPoint x="2700" y="88" as="sourcePoint" />
            <mxPoint x="2750" y="38" as="targetPoint" />
          </mxGeometry>
        </mxCell>
        <mxCell id="stLxp_5td-xepopUjHBC-115" value="" style="endArrow=none;html=1;rounded=0;entryX=0;entryY=0.5;entryDx=0;entryDy=0;exitX=0.5;exitY=0.5;exitDx=0;exitDy=0;exitPerimeter=0;" edge="1" parent="1" source="stLxp_5td-xepopUjHBC-111" target="stLxp_5td-xepopUjHBC-118">
          <mxGeometry width="50" height="50" relative="1" as="geometry">
            <mxPoint x="2710" y="98" as="sourcePoint" />
            <mxPoint x="2760" y="48" as="targetPoint" />
          </mxGeometry>
        </mxCell>
        <mxCell id="stLxp_5td-xepopUjHBC-116" value="" style="endArrow=none;html=1;rounded=0;entryX=0.5;entryY=0.5;entryDx=0;entryDy=0;entryPerimeter=0;exitX=1;exitY=0.5;exitDx=0;exitDy=0;" edge="1" parent="1" source="stLxp_5td-xepopUjHBC-118" target="stLxp_5td-xepopUjHBC-134">
          <mxGeometry width="50" height="50" relative="1" as="geometry">
            <mxPoint x="2720" y="108" as="sourcePoint" />
            <mxPoint x="2770" y="58" as="targetPoint" />
          </mxGeometry>
        </mxCell>
        <mxCell id="stLxp_5td-xepopUjHBC-117" value="" style="endArrow=none;html=1;rounded=0;entryX=0.5;entryY=0.5;entryDx=0;entryDy=0;entryPerimeter=0;exitX=1;exitY=0.5;exitDx=0;exitDy=0;" edge="1" parent="1" source="stLxp_5td-xepopUjHBC-104" target="stLxp_5td-xepopUjHBC-112">
          <mxGeometry width="50" height="50" relative="1" as="geometry">
            <mxPoint x="2730" y="118" as="sourcePoint" />
            <mxPoint x="2780" y="68" as="targetPoint" />
          </mxGeometry>
        </mxCell>
        <mxCell id="stLxp_5td-xepopUjHBC-118" value="show payable" style="ellipse;whiteSpace=wrap;html=1;" vertex="1" parent="1">
          <mxGeometry x="2913" y="348" width="85" height="50" as="geometry" />
        </mxCell>
        <mxCell id="stLxp_5td-xepopUjHBC-119" value="choose payment" style="ellipse;whiteSpace=wrap;html=1;" vertex="1" parent="1">
          <mxGeometry x="2913" y="423" width="85" height="50" as="geometry" />
        </mxCell>
        <mxCell id="stLxp_5td-xepopUjHBC-120" value="do&lt;br&gt;payment" style="ellipse;whiteSpace=wrap;html=1;" vertex="1" parent="1">
          <mxGeometry x="2913" y="503" width="85" height="50" as="geometry" />
        </mxCell>
        <mxCell id="stLxp_5td-xepopUjHBC-121" value="check&lt;br&gt;payment" style="ellipse;whiteSpace=wrap;html=1;" vertex="1" parent="1">
          <mxGeometry x="2913" y="573" width="85" height="50" as="geometry" />
        </mxCell>
        <mxCell id="stLxp_5td-xepopUjHBC-122" value="" style="endArrow=none;html=1;rounded=0;entryX=0.5;entryY=0.5;entryDx=0;entryDy=0;entryPerimeter=0;exitX=1;exitY=0.5;exitDx=0;exitDy=0;" edge="1" parent="1" source="stLxp_5td-xepopUjHBC-127" target="stLxp_5td-xepopUjHBC-112">
          <mxGeometry width="50" height="50" relative="1" as="geometry">
            <mxPoint x="2690" y="78" as="sourcePoint" />
            <mxPoint x="2740" y="28" as="targetPoint" />
          </mxGeometry>
        </mxCell>
        <mxCell id="stLxp_5td-xepopUjHBC-123" value="" style="endArrow=none;html=1;rounded=0;entryX=0.5;entryY=0.5;entryDx=0;entryDy=0;entryPerimeter=0;exitX=0;exitY=0.5;exitDx=0;exitDy=0;" edge="1" parent="1" source="stLxp_5td-xepopUjHBC-126" target="stLxp_5td-xepopUjHBC-111">
          <mxGeometry width="50" height="50" relative="1" as="geometry">
            <mxPoint x="2700" y="88" as="sourcePoint" />
            <mxPoint x="2750" y="38" as="targetPoint" />
          </mxGeometry>
        </mxCell>
        <mxCell id="stLxp_5td-xepopUjHBC-124" value="" style="endArrow=none;html=1;rounded=0;entryX=0.5;entryY=0.5;entryDx=0;entryDy=0;entryPerimeter=0;exitX=1;exitY=0.5;exitDx=0;exitDy=0;" edge="1" parent="1" source="stLxp_5td-xepopUjHBC-126" target="stLxp_5td-xepopUjHBC-112">
          <mxGeometry width="50" height="50" relative="1" as="geometry">
            <mxPoint x="2710" y="98" as="sourcePoint" />
            <mxPoint x="2760" y="48" as="targetPoint" />
          </mxGeometry>
        </mxCell>
        <mxCell id="stLxp_5td-xepopUjHBC-125" value="" style="endArrow=none;html=1;rounded=0;entryX=0.5;entryY=0.5;entryDx=0;entryDy=0;entryPerimeter=0;exitX=1;exitY=0.5;exitDx=0;exitDy=0;" edge="1" parent="1" source="stLxp_5td-xepopUjHBC-121" target="stLxp_5td-xepopUjHBC-112">
          <mxGeometry width="50" height="50" relative="1" as="geometry">
            <mxPoint x="2720" y="108" as="sourcePoint" />
            <mxPoint x="2770" y="58" as="targetPoint" />
          </mxGeometry>
        </mxCell>
        <mxCell id="stLxp_5td-xepopUjHBC-126" value="Error&lt;br&gt;Message" style="ellipse;whiteSpace=wrap;html=1;" vertex="1" parent="1">
          <mxGeometry x="2913" y="643" width="85" height="50" as="geometry" />
        </mxCell>
        <mxCell id="stLxp_5td-xepopUjHBC-127" value="Success&lt;br&gt;Message" style="ellipse;whiteSpace=wrap;html=1;" vertex="1" parent="1">
          <mxGeometry x="2913" y="713" width="85" height="50" as="geometry" />
        </mxCell>
        <mxCell id="stLxp_5td-xepopUjHBC-128" value="" style="endArrow=none;html=1;rounded=0;entryX=0.5;entryY=0.5;entryDx=0;entryDy=0;entryPerimeter=0;exitX=1;exitY=0.5;exitDx=0;exitDy=0;" edge="1" parent="1" source="stLxp_5td-xepopUjHBC-130" target="stLxp_5td-xepopUjHBC-112">
          <mxGeometry width="50" height="50" relative="1" as="geometry">
            <mxPoint x="2690" y="78" as="sourcePoint" />
            <mxPoint x="2740" y="28" as="targetPoint" />
          </mxGeometry>
        </mxCell>
        <mxCell id="stLxp_5td-xepopUjHBC-129" value="" style="endArrow=none;html=1;rounded=0;entryX=0.5;entryY=0.5;entryDx=0;entryDy=0;entryPerimeter=0;exitX=0;exitY=0.5;exitDx=0;exitDy=0;" edge="1" parent="1" source="stLxp_5td-xepopUjHBC-127" target="stLxp_5td-xepopUjHBC-111">
          <mxGeometry width="50" height="50" relative="1" as="geometry">
            <mxPoint x="2700" y="88" as="sourcePoint" />
            <mxPoint x="2750" y="38" as="targetPoint" />
          </mxGeometry>
        </mxCell>
        <mxCell id="stLxp_5td-xepopUjHBC-130" value="update&lt;br&gt;limit" style="ellipse;whiteSpace=wrap;html=1;" vertex="1" parent="1">
          <mxGeometry x="2913" y="788" width="85" height="50" as="geometry" />
        </mxCell>
        <mxCell id="stLxp_5td-xepopUjHBC-132" value="" style="endArrow=none;html=1;rounded=0;exitX=0.5;exitY=0.5;exitDx=0;exitDy=0;exitPerimeter=0;entryX=0;entryY=0.5;entryDx=0;entryDy=0;" edge="1" parent="1" source="stLxp_5td-xepopUjHBC-1" target="stLxp_5td-xepopUjHBC-131">
          <mxGeometry width="50" height="50" relative="1" as="geometry">
            <mxPoint x="230" y="440" as="sourcePoint" />
            <mxPoint x="378" y="230" as="targetPoint" />
          </mxGeometry>
        </mxCell>
        <mxCell id="stLxp_5td-xepopUjHBC-134" value="Loan Management Service" style="shape=umlActor;verticalLabelPosition=bottom;verticalAlign=top;html=1;outlineConnect=0;" vertex="1" parent="1">
          <mxGeometry x="3190" y="375" width="30" height="60" as="geometry" />
        </mxCell>
      </root>
    </mxGraphModel>
  </diagram>
</mxfile>
